<?xml version="1.0" encoding="UTF-8"?><svg id="b" xmlns="http://www.w3.org/2000/svg" viewBox="0 0 380.55 160"><g id="c"><path d="M51.37,103.86c-6.77,0-12.6-1.5-17.5-4.5-4.91-3-8.31-7.36-10.22-13.08l10.14.1c1.14,3.81,2.36,3,5.93,5.19,3.57,2.19,7.5,3.29,11.79,3.29,4,0,7.31-.98,9.93-2.93,2.62-1.95,3.93-4.64,3.93-8.07,0-2.86-1.03-5.26-3.07-7.22-2.05-1.95-5.5-3.74-10.36-5.36l-7.72-2.43c-11.43-3.52-17.15-10.29-17.15-20.29,0-5.81,2.26-10.43,6.79-13.86,4.52-3.43,10.22-5.14,17.08-5.14,10.76,0,18.48,4.19,23.15,12.58l-8,5c-3.81-5.81-9.05-8.72-15.72-8.72-3.53,0-6.62.93-9.29,2.79s-4,4.17-4,6.93c0,5.34,3.72,9.19,11.15,11.57l8.14,2.57c12.67,4,19.01,10.91,19.01,20.72,0,6.57-2.22,11.69-6.64,15.36-4.43,3.67-10.22,5.5-17.36,5.5Z"/><path d="M93.66,132.29h-10V37.15l10-6.16v12c2.57-4,6.26-7.24,11.07-9.72,4.81-2.48,9.93-3.72,15.36-3.72,10,0,18.43,3.62,25.29,10.86,6.86,7.24,10.29,16,10.29,26.29s-3.43,19.05-10.29,26.29c-6.86,7.24-15.29,10.86-25.29,10.86-5.43,0-10.55-1.24-15.36-3.72-4.81-2.48-8.5-5.72-11.07-9.72v41.87ZM100.16,86.5c4.91,5.38,11.22,8.07,18.93,8.07s14.03-2.69,18.93-8.07c4.91-5.38,7.36-11.98,7.36-19.79s-2.45-14.41-7.36-19.79c-4.91-5.38-11.22-8.07-18.93-8.07s-14.03,2.69-18.93,8.07c-4.91,5.38-7.36,11.98-7.36,19.79s2.45,14.41,7.36,19.79Z"/><path d="M200.4,103.86c-10,0-18.43-3.62-25.29-10.86-6.86-7.24-10.29-16-10.29-26.29s3.43-19.05,10.29-26.29c6.86-7.24,15.29-10.86,25.29-10.86,5.43,0,10.55,1.24,15.36,3.72,4.81,2.48,8.5,5.72,11.07,9.72v-5.84l10-6.16v71.45h-10v-12c-2.57,4-6.27,7.24-11.07,9.72-4.81,2.48-9.93,3.72-15.36,3.72ZM182.47,86.5c4.91,5.38,11.22,8.07,18.93,8.07s14.03-2.69,18.93-8.07c4.91-5.38,7.36-11.98,7.36-19.79s-2.45-14.41-7.36-19.79c-4.91-5.38-11.22-8.07-18.93-8.07s-14.03,2.69-18.93,8.07c-4.91,5.38-7.36,11.98-7.36,19.79s2.45,14.41,7.36,19.79Z"/><path d="M247.13,102.43V37.15l10-6.16v14.72c1.52-4.76,4.24-8.52,8.14-11.29,3.91-2.76,8.1-4.14,12.57-4.14,2,0,3.72.19,5.14.57v10.43c-1.71-.67-3.72-1-6-1-5.05,0-9.62,2.29-13.72,6.86-4.1,4.57-6.14,11.05-6.14,19.43v35.87h-10Z"/><path d="M344.33,99.15l-23.29-28.72-23.29,28.72h-12.72l29.72-36.58-22-28.7,8.27-5.05,19.87,25.9,20.86-27.01h12.29l-26.86,35.01,29.72,36.44h-12.57Z" style="opacity:.4;"/><rect width="380.55" height="160" style="fill:none;"/></g></svg>